<svg version="1.2" xmlns="http://www.w3.org/2000/svg" viewBox="0 0 138 196" width="138" height="196">
	<title>새 프로젝트</title>
	<style>
		.s0 { fill: #b24790;stroke: #833a5c } 
		.s1 { fill: none;stroke: #833a5c;stroke-linecap: round;stroke-width: 2.7 } 
		.s2 { fill: none;stroke: #833a5c;stroke-linecap: round;stroke-width: 1.5 } 
		.s3 { fill: #8f5732;stroke: #7b421c;stroke-linecap: round;stroke-width: 4.4 } 
	</style>
	<g id="폴더 1">
		<path id="고구마" class="s0" d="m56.7 30.5c-10 5.8-17.1 9.1-24.6 8.5-9.7-0.8-12.4-3.6-24.9-13.8 2.1-7.4 10.6-8.8 21.9-8.6 12.2 0.3 19 6.1 27.6 13.9z"/>
		<path id="모양 2" class="s1" d="m19.9 28.2c5.9 6.3 7.9-0.8 13 0.9"/>
		<path id="모양 2 copy" class="s2" d="m30 23.9c5.2-1.6 5.2-1.5 8.9 1.5"/>
		<path id="고구마" class="s0" d="m-9.1 17c11.4 2 18.9 4 24.2 9.3 7 6.9 7.3 10.7 10.3 26.6-6.4 4.3-13.8 0-22.3-7.4-9.1-8.2-10.7-16.9-12.2-28.5z"/>
		<path id="모양 2" class="s1" d="m17.6 42.4c-0.5-8.6-6.6-4.5-9.4-9.1"/>
		<path id="모양 2 copy" class="s2" d="m7.1 39.2c-5-2.1-5-2.1-5.9-6.9"/>
		<path id="고구마" class="s0" d="m91.2 35.1c-12.3 2.5-20.6 3.5-27.9 0.6-9.5-3.8-11.2-7.3-20-21.2 4.9-6.6 13.9-5.3 25.2-1.6 12.2 4.1 16.9 11.8 22.7 22.2z"/>
		<path id="모양 2" class="s1" d="m62.9 19.8c0.5 8.6 6.6 4.4 9.4 9"/>
		<path id="모양 2 copy" class="s2" d="m73.4 22.9c5 2.1 4.9 2.2 5.9 6.9"/>
		<path id="고구마" class="s0" d="m78.1 20.2c-3.1 11.1-5.7 18.4-11.5 23.3-7.4 6.3-11.2 6.3-27.3 7.9-3.8-6.8 1.2-13.7 9.3-21.6 8.9-8.4 17.8-9.1 29.5-9.6z"/>
		<path id="모양 2" class="s1" d="m50.4 44.5c8.6 0.3 5-6.1 9.9-8.5"/>
		<path id="모양 2 copy" class="s2" d="m54.5 34.4c2.5-4.9 2.5-4.8 7.4-5.3"/>
		<path id="고구마" class="s0" d="m25.3 71.6c-5.5-11.5-8.5-19.5-7.3-27.9 1.5-10.7 4.7-13.5 16.8-26.8 7.8 2.8 8.7 12.3 7.7 24.9-1.3 13.5-8 20.7-17.2 29.8z"/>
		<path id="모양 2" class="s1" d="m30.5 30.9c-7.2 6.1 0.3 8.8-1.9 14.4"/>
		<path id="모양 2 copy" class="s2" d="m34.5 42.3c1.3 5.9 1.2 5.9-2.3 9.9"/>
		<path id="박스 copy 2" class="s3" d="m-6 44l70 1 26-15v70l-25 12h-70zm70 6l1 54m-59-53l54 52"/>
		<path id="고구마" class="s0" d="m126.6 107.4c-11.4 2-19.1 2.6-26-0.5-8.8-4.1-10.4-7.6-18.6-21.6 4.5-6.2 12.9-4.6 23.5-0.5 11.3 4.5 15.7 12.3 21.1 22.6z"/>
		<path id="모양 2" class="s1" d="m92.9 92.6c3.3 8 7.7 2 11.9 5.3"/>
		<path id="모양 2 copy" class="s2" d="m103.8 92c5.4 0.3 5.4 0.4 7.9 4.5"/>
		<path id="고구마" class="s0" d="m127.6 85c2.4 10.2 3.5 17.1 1 23.4-3.1 8.3-6.2 9.9-18.3 18.1-5.9-3.7-4.9-11.4-1.9-21.1 3.4-10.5 10.2-15 19.2-20.4z"/>
		<path id="모양 2" class="s1" d="m116.2 116.3c7-3.5 1.3-7.1 4.1-11.1"/>
		<path id="모양 2 copy" class="s2" d="m115 106.5c-0.1-5 0-4.9 3.6-7.4"/>
		<path id="고구마" class="s0" d="m-10.1 84.1c10.6 7.8 17.2 13.5 20.1 21.1 3.7 9.7 2.1 13.3-2.6 29.1-8.6 0.5-13.9-7.3-19-18.4-5.3-12-2.6-20.7 1.5-31.8z"/>
		<path id="모양 2" class="s1" d="m4.6 120.8c3.7-7.9-4.5-7.4-5.1-13"/>
		<path id="모양 2 copy" class="s2" d="m-4.5 112.5c-4-4.5-3.9-4.5-2.6-9.3"/>
		<path id="고구마" class="s0" d="m91.3 89.4c8.7 7.6 14.1 13.2 16 20.5 2.4 9.4 0.7 12.8-4.9 28.1-7.7 0.4-11.8-7.2-15.3-17.9-3.7-11.7-0.5-20 4.2-30.7z"/>
		<path id="모양 2" class="s1" d="m101.1 124.9c4-7.6-3.4-7.2-3.4-12.6"/>
		<path id="모양 2 copy" class="s2" d="m93.7 116.8c-3.2-4.3-3.1-4.4-1.5-8.9"/>
		<path id="모양 2 copy 2" class="s2" d="m93.7 116.8c-3.2-4.3-3.1-4.4-1.5-8.9"/>
		<path id="고구마" class="s0" d="m71.2 139.1c-4.5-10.7-6.8-18-5.3-25.4 2-9.6 5-11.9 16.8-23 7.1 3 7.4 11.6 5.8 22.8-1.9 12-8.4 18.1-17.3 25.6z"/>
		<path id="모양 2" class="s1" d="m78.1 102.9c-7 5.1-0.2 8-2.5 12.8"/>
		<path id="모양 2 copy" class="s2" d="m81.1 113.4c1 5.4 0.9 5.4-2.6 8.7"/>
		<path id="고구마" class="s0" d="m28.1 127.7c-5.6-7.4-9-12.6-9.3-18.7-0.4-7.9 1.6-10.3 8.5-21.3 6.1 0.9 8.1 7.5 9.1 16.5 1 9.8-2.9 15.8-8.3 23.5z"/>
		<path id="모양 2" class="s1" d="m26.1 98.1c-4.4 5.4 1.5 6.3 0.7 10.5"/>
		<path id="모양 2 copy" class="s2" d="m30.6 105.7c1.9 4 1.8 4-0.3 7.3"/>
		<path id="고구마" class="s0" d="m2.3 134.9c1-11.5 2.3-19.1 7-25 6.2-7.5 10-8.1 25.5-12.6 4.9 5.9 1.3 13.7-5.3 22.9-7.2 9.8-15.8 12.1-27.2 14.7z"/>
		<path id="모양 2" class="s1" d="m25.1 106c-8.5 1.3-3.8 7-8.1 10.2"/>
		<path id="모양 2 copy" class="s2" d="m22.9 116.7c-1.6 5.2-1.6 5.2-6.3 6.5"/>
		<path id="박스" class="s3" d="m-45 122l70 1 26-15v70l-25 12h-70zm70 6l1 54m-59-53l54 52"/>
		<path id="고구마" class="s0" d="m37.7 95.5c11.2 2.7 18.5 5.1 23.6 10.7 6.5 7.3 6.6 11.1 8.6 27.2-6.6 3.9-13.7-0.9-21.8-8.8-8.6-8.6-9.6-17.5-10.4-29.1z"/>
		<path id="모양 2" class="s1" d="m62.8 122.4c0-8.6-6.3-4.8-8.9-9.6"/>
		<path id="모양 2 copy" class="s2" d="m52.5 118.7c-4.9-2.4-4.8-2.5-5.4-7.3"/>
		<path id="박스 copy" class="s3" d="m34 119l70 1 26-15v70l-25 12h-70zm70 6l1 54m-59-53l54 52"/>
	</g>
</svg>